<svg xmlns="http://www.w3.org/2000/svg" xmlns:xlink="http://www.w3.org/1999/xlink" width="500" zoomAndPan="magnify" viewBox="0 0 375 374.999991" height="500" preserveAspectRatio="xMidYMid meet" version="1.0"><defs><g/></defs><rect x="-37.5" width="450" fill="#ffffff" y="-37.499999" height="449.999989" fill-opacity="1"/><rect x="-37.5" width="450" fill="#fdedd5" y="-37.499999" height="449.999989" fill-opacity="1"/><g fill="#6d412a" fill-opacity="1"><g transform="translate(145.065625, 267.133319)"><g><path d="M 115.765625 -1.59375 L 117.671875 -1.59375 L 117.671875 0 L 83.046875 0 L 83.046875 -1.59375 L 85.109375 -1.59375 C 87.753906 -1.59375 90.054688 -2.515625 92.015625 -4.359375 C 93.972656 -6.210938 95.0625 -8.519531 95.28125 -11.28125 L 95.28125 -52.5625 L 33.828125 -52.5625 L 33.828125 -11.109375 C 33.828125 3.703125 30.226562 13.648438 23.03125 18.734375 C 19.75 21.066406 15.515625 22.816406 10.328125 23.984375 L 9.53125 22.546875 C 14.289062 20.003906 17.804688 16.085938 20.078125 10.796875 C 22.359375 5.503906 23.5 -1.796875 23.5 -11.109375 L 23.5 -99.71875 C 23.5 -102.476562 22.492188 -104.804688 20.484375 -106.703125 C 18.472656 -108.609375 16.09375 -109.5625 13.34375 -109.5625 L 11.4375 -109.5625 L 11.4375 -111.15625 L 46.046875 -111.15625 L 46.046875 -109.5625 L 43.984375 -109.5625 C 41.234375 -109.5625 38.878906 -108.609375 36.921875 -106.703125 C 34.960938 -104.804688 33.929688 -102.476562 33.828125 -99.71875 L 33.828125 -57.328125 L 95.28125 -57.328125 L 95.28125 -96.859375 C 95.382812 -110.410156 98.398438 -119.832031 104.328125 -125.125 C 107.929688 -128.300781 112.800781 -130.578125 118.9375 -131.953125 L 119.734375 -130.53125 C 114.972656 -127.988281 111.425781 -124.070312 109.09375 -118.78125 C 106.757812 -113.488281 105.59375 -106.179688 105.59375 -96.859375 L 105.59375 -11.59375 C 105.59375 -8.84375 106.570312 -6.488281 108.53125 -4.53125 C 110.488281 -2.570312 112.898438 -1.59375 115.765625 -1.59375 Z M 115.765625 -1.59375 "/></g></g></g><g fill="#6d412a" fill-opacity="1"><g transform="translate(104.593153, 235.88332)"><g><path d="M -9.21875 -79.5625 C -12.5 -83.476562 -14.140625 -87.367188 -14.140625 -91.234375 C -14.140625 -95.097656 -13.238281 -98.429688 -11.4375 -101.234375 C -9.632812 -104.035156 -6.722656 -106.414062 -2.703125 -108.375 C 1.316406 -110.332031 5.867188 -111.3125 10.953125 -111.3125 L 76.0625 -111.3125 C 79.34375 -111.3125 82.96875 -111.628906 86.9375 -112.265625 C 90.90625 -112.898438 93.6875 -113.535156 95.28125 -114.171875 L 95.28125 -94.171875 L 93.6875 -94.328125 L 93.6875 -97.03125 C 93.6875 -99.570312 92.785156 -101.765625 90.984375 -103.609375 C 89.179688 -105.460938 87.066406 -106.441406 84.640625 -106.546875 L 54.46875 -106.546875 L 54.46875 -11.4375 C 54.570312 -7.625 56.265625 -4.765625 59.546875 -2.859375 C 61.128906 -2.015625 62.820312 -1.59375 64.625 -1.59375 L 66.6875 -1.59375 L 66.6875 0 L 31.921875 0 L 31.921875 -1.59375 L 33.984375 -1.59375 C 36.734375 -1.59375 39.085938 -2.539062 41.046875 -4.4375 C 43.003906 -6.34375 44.035156 -8.625 44.140625 -11.28125 L 44.140625 -106.546875 L 10.953125 -106.546875 C 2.484375 -106.546875 -3.65625 -103.847656 -7.46875 -98.453125 C -9.476562 -95.703125 -10.484375 -92.816406 -10.484375 -89.796875 C -10.484375 -86.785156 -9.632812 -83.632812 -7.9375 -80.34375 Z M -9.21875 -79.5625 "/></g></g></g></svg>